<svg width="1200" height="630" viewBox="0 0 1200 630" xmlns="http://www.w3.org/2000/svg">
  <defs>
    <linearGradient id="bg-gradient" x1="0" y1="0" x2="1200" y2="630" gradientUnits="userSpaceOnUse">
      <stop stop-color="#fdfdfd"/>
      <stop offset="1" stop-color="#f0f4f8"/>
    </linearGradient>
  </defs>
  <!-- Background -->
  <rect width="1200" height="630" rx="40" fill="url(#bg-gradient)"/>

  <!-- Sparkles Icon (left) -->
  <g transform="translate(80,135) scale(1)">
    <polygon points="32,8 36,28 56,32 36,36 32,56 28,36 8,32 28,28" fill="#5999F7" stroke="#2A7CE8" stroke-width="2"/>
    <polygon points="50,14 52,20 58,22 52,24 50,30 48,24 42,22 48,20" fill="#A3CCFF" stroke="#2A7CE8" stroke-width="1"/>
    <polygon points="14,50 16,54 20,56 16,58 14,62 12,58 8,56 12,54" fill="#A3CCFF" stroke="#2A7CE8" stroke-width="1"/>
    <polygon points="12,12 13,15 16,16 13,17 12,20 11,17 8,16 11,15" fill="#BBE0FF" stroke="#2A7CE8" stroke-width="0.5"/>
    <polygon points="52,48 53,50 56,51 53,52 52,54 51,52 48,51 51,50" fill="#BBE0FF" stroke="#2A7CE8" stroke-width="0.5"/>
  </g>
  <!-- Sparkles Icon (right) -->
  <g transform="translate(1040,135) scale(1)">
    <polygon points="32,8 36,28 56,32 36,36 32,56 28,36 8,32 28,28" fill="#5999F7" stroke="#2A7CE8" stroke-width="2"/>
    <polygon points="50,14 52,20 58,22 52,24 50,30 48,24 42,22 48,20" fill="#A3CCFF" stroke="#2A7CE8" stroke-width="1"/>
    <polygon points="14,50 16,54 20,56 16,58 14,62 12,58 8,56 12,54" fill="#A3CCFF" stroke="#2A7CE8" stroke-width="1"/>
    <polygon points="12,12 13,15 16,16 13,17 12,20 11,17 8,16 11,15" fill="#BBE0FF" stroke="#2A7CE8" stroke-width="0.5"/>
    <polygon points="52,48 53,50 56,51 53,52 52,54 51,52 48,51 51,50" fill="#BBE0FF" stroke="#2A7CE8" stroke-width="0.5"/>
  </g>
  <!-- Logo -->
  <g opacity="0.1" transform="translate(350,65) scale(2.5)">
    <g transform="rotate(45 100 100)">
      <!-- Yellow square with slightly rounded corners -->
      <rect x="30" y="30" width="140" height="140" rx="8" fill="#FFD600" />
      <!-- Inset black border with same curvature -->
      <rect x="36" y="36" width="128" height="128" rx="4" fill="none" stroke="black" stroke-width="4" />
    </g>
    <g transform="scale(1.25) translate(30,38)">
      <!-- Robot head main body -->
      <rect x="20" y="25" width="60" height="50" rx="8" ry="8" fill="#e0e0e0" stroke="#333" stroke-width="2"/>

      <!-- Antenna -->
      <line x1="50" y1="25" x2="50" y2="15" stroke="#333" stroke-width="2"/>
      <circle cx="50" cy="12" r="3" fill="#ff4444" stroke="#333" stroke-width="1"/>

      <!-- Eyes -->
      <circle cx="35" cy="42" r="8" fill="#fff" stroke="#444" stroke-width="2"/>
      <circle cx="65" cy="42" r="8" fill="#fff" stroke="#444" stroke-width="2"/>
      <circle cx="35" cy="42" r="3" fill="#444"/>
      <circle cx="65" cy="42" r="3" fill="#444"/>

      <!-- Mouth/speaker grille -->
      <rect x="35" y="58" width="30" height="8" rx="4" fill="#fff" stroke="#444" stroke-width="2"/>
      <line x1="42" y1="62" x2="42" y2="66" stroke="#444" stroke-width="2"/>
      <line x1="50" y1="62" x2="50" y2="66" stroke="#444" stroke-width="2"/>
      <line x1="58" y1="62" x2="58" y2="66" stroke="#444" stroke-width="2"/>

      <!-- Neck connector -->
      <rect x="45" y="75" width="10" height="8" fill="#ccc" stroke="#333" stroke-width="2"/>
    </g>
    <g transform="translate(95,23) rotate(20) scale(0.18)">
      <polygon points="40,10 90,60 60,60 80,140 20,80 50,80 40,10" fill="#ed7727" stroke="#dd5430" stroke-width="6"/>
    </g>
    <g transform="translate(122,38) rotate(70) scale(0.15)">
      <polygon points="40,10 90,60 60,60 80,140 20,80 50,80 40,10" fill="#ed7727" stroke="#dd5430" stroke-width="6"/>
    </g>
    <g transform="translate(70,48) rotate(-40) scale(0.15)">
      <polygon points="40,10 90,60 60,60 80,140 20,80 50,80 40,10" fill="#ed7727" stroke="#dd5430" stroke-width="6"/>
    </g>
  </g>
  <!-- Main Title -->
  <text x="598" y="100" font-size="48" font-family="Arial, sans-serif" fill="#000" opacity="0.85" font-weight="500" textLength="826" text-anchor="middle" style="text-transform:uppercase;">AI DARWIN AWARDS</text>
  <text x="600" y="200" font-size="88" font-family="Arial, sans-serif" fill="#222" font-weight="bold" textLength="830" text-anchor="middle">Winner 2024</text>

  <!-- Title -->
  <text x="600" y="300" font-size="64" font-family="Arial, sans-serif" fill="#000" opacity="0.85" font-weight="500" text-anchor="middle">Lavender: Death by Algorithm</text>
  <!-- Tagline -->
  <text x="600" y="380" font-size="43" font-family="Arial, sans-serif" fill="#00598F" text-anchor="middle">Automating the unthinkable</text>
  <!-- Nominee Name/Entity -->
  <text x="600" y="460" font-size="34" font-family="Arial, sans-serif" fill="#666" text-anchor="middle">IDF's Lavender AI Targeting System</text>

  <!-- Quote in bottom right, large quote symbol, light grey, normal font -->
  <text x="60" y="580" font-size="120" font-family="Arial, sans-serif" fill="#ddd" font-style="italic" font-weight="bold" opacity="1">“</text>
  <text x="120" y="560" font-size="31" font-family="Arial, sans-serif" fill="#888" font-style="italic">When 90% accuracy means 10% innocent civilians</text>
</svg>
