<svg width="950" height="500" viewBox="0 0 950 500" xmlns="http://www.w3.org/2000/svg">
  <!-- White background with rounded corners -->
  <rect x="0" y="0" width="950" height="500" rx="48" fill="#f8f9fa"/>
  <!-- Left: Original logo, scaled and centered vertically -->
  <g transform="translate(25,100) scale(1.5)">
    <!-- Yellow square with slightly rounded corners -->
    <g transform="rotate(45 100 100)">
      <rect x="30" y="30" width="140" height="140" rx="8" fill="#FFD600" />
      <!-- Inset black border with same curvature -->
      <rect x="36" y="36" width="128" height="128" rx="4" fill="none" stroke="black" stroke-width="4" />
    </g>
    <!-- Robot head main body -->
    <g transform="scale(1.25) translate(30,38)">
      <rect x="20" y="25" width="60" height="50" rx="8" ry="8" fill="#e0e0e0" stroke="#333" stroke-width="2"/>
      <!-- Antenna -->
      <line x1="50" y1="25" x2="50" y2="15" stroke="#333" stroke-width="2"/>
      <circle cx="50" cy="12" r="3" fill="#ff4444" stroke="#333" stroke-width="1"/>
      <!-- Eyes -->
      <circle cx="35" cy="42" r="8" fill="#fff" stroke="#444" stroke-width="2"/>
      <circle cx="65" cy="42" r="8" fill="#fff" stroke="#444" stroke-width="2"/>
      <circle cx="35" cy="42" r="3" fill="#444"/>
      <circle cx="65" cy="42" r="3" fill="#444"/>
      <!-- Mouth/speaker grille -->
      <rect x="35" y="58" width="30" height="8" rx="4" fill="#fff" stroke="#444" stroke-width="2"/>
      <line x1="42" y1="62" x2="42" y2="66" stroke="#444" stroke-width="2"/>
      <line x1="50" y1="62" x2="50" y2="66" stroke="#444" stroke-width="2"/>
      <line x1="58" y1="62" x2="58" y2="66" stroke="#444" stroke-width="2"/>
      <!-- Neck connector -->
      <rect x="45" y="75" width="10" height="8" fill="#ccc" stroke="#333" stroke-width="2"/>
    </g>
    <!-- Orange warning marks -->
    <g transform="translate(95,23) rotate(20) scale(0.18)">
      <polygon points="40,10 90,60 60,60 80,140 20,80 50,80 40,10" fill="#ed7727" stroke="#dd5430" stroke-width="6"/>
    </g>
    <g transform="translate(122,38) rotate(70) scale(0.15)">
      <polygon points="40,10 90,60 60,60 80,140 20,80 50,80 40,10" fill="#ed7727" stroke="#dd5430" stroke-width="6"/>
    </g>
    <g transform="translate(70,48) rotate(-40) scale(0.15)">
      <polygon points="40,10 90,60 60,60 80,140 20,80 50,80 40,10" fill="#ed7727" stroke="#dd5430" stroke-width="6"/>
    </g>
  </g>
  <!-- Right: Text -->
  <g font-family="Arial, Helvetica, sans-serif">
    <!-- Title -->
    <text x="360" y="235" font-size="60" font-weight="bold" fill="#222" textLength="550" lengthAdjust="spacingAndGlyphs">AI Darwin Awards</text>
    <!-- Tagline -->
    <text x="360" y="280" font-size="28" fill="#444" textLength="550" lengthAdjust="spacingAndGlyphs">Because Artificial Intelligence Isn’t Always Intelligent</text>
<!--    <text x="360" y="280" font-size="28" fill="#444" textLength="550" lengthAdjust="spacingAndGlyphs">Improving the Gene Pool, One AI Deployment at a Time</text>-->
<!--    <text x="360" y="280" font-size="28" fill="#444" textLength="550" lengthAdjust="spacingAndGlyphs">Scaling Stupidity with Machine Learning</text>-->
<!--    <text x="360" y="280" font-size="28" fill="#444" textLength="550" lengthAdjust="spacingAndGlyphs">AI Safety? That's Tomorrow's Problem</text>-->
<!--    <text x="430" y="280" font-size="32" fill="#444" textLength="400" lengthAdjust="spacingAndGlyphs">Beta Testing Humanity</text>-->
<!--    <text x="360" y="280" font-size="28" fill="#444" textLength="550" lengthAdjust="spacingAndGlyphs">Natural Selection Has Gone Digital</text>-->
  </g>
</svg>
