<svg width="1200" height="630" viewBox="0 0 1200 630" xmlns="http://www.w3.org/2000/svg">
  <defs>
    <linearGradient id="bg-gradient" x1="0" y1="0" x2="1200" y2="630" gradientUnits="userSpaceOnUse">
      <stop stop-color="#fdfdfd"/>
      <stop offset="1" stop-color="#f0f4f8"/>
    </linearGradient>
  </defs>
  <!-- Background -->
  <rect width="1200" height="630" rx="40" fill="url(#bg-gradient)"/>

  <!-- Logo (top right) -->
  <g transform="translate(660,50) scale(2.5)">
    <g transform="rotate(45 100 100)">
      <rect x="30" y="30" width="140" height="140" rx="8" fill="#FFD600" />
      <rect x="36" y="36" width="128" height="128" rx="4" fill="none" stroke="black" stroke-width="4" />
    </g>
    <g transform="scale(1.25) translate(30,38)">
      <rect x="20" y="25" width="60" height="50" rx="8" ry="8" fill="#e0e0e0" stroke="#333" stroke-width="2"/>
      <line x1="50" y1="25" x2="50" y2="15" stroke="#333" stroke-width="2"/>
      <circle cx="35" cy="42" r="8" fill="#fff" stroke="#444" stroke-width="2"/>
      <circle cx="65" cy="42" r="8" fill="#fff" stroke="#444" stroke-width="2"/>
      <circle cx="35" cy="42" r="3" fill="#444"/>
      <circle cx="65" cy="42" r="3" fill="#444"/>
      <rect x="35" y="58" width="30" height="8" rx="4" fill="#fff" stroke="#444" stroke-width="2"/>
      <line x1="42" y1="62" x2="42" y2="66" stroke="#444" stroke-width="2"/>
      <line x1="50" y1="62" x2="50" y2="66" stroke="#444" stroke-width="2"/>
      <line x1="58" y1="62" x2="58" y2="66" stroke="#444" stroke-width="2"/>
      <rect x="45" y="75" width="10" height="8" fill="#ccc" stroke="#333" stroke-width="2"/>
    </g>
    <g transform="translate(95,23) rotate(20) scale(0.18)">
      <polygon points="40,10 90,60 60,60 80,140 20,80 50,80 40,10" fill="#ed7727" stroke="#dd5430" stroke-width="6"/>
    </g>
    <g transform="translate(122,38) rotate(70) scale(0.15)">
      <polygon points="40,10 90,60 60,60 80,140 20,80 50,80 40,10" fill="#ed7727" stroke="#dd5430" stroke-width="6"/>
    </g>
    <g transform="translate(70,48) rotate(-40) scale(0.15)">
      <polygon points="40,10 90,60 60,60 80,140 20,80 50,80 40,10" fill="#ed7727" stroke="#dd5430" stroke-width="6"/>
    </g>
  </g>
  <!-- Short Title -->
  <text x="60" y="150" font-size="72" font-family="'Segoe UI', Arial, sans-serif" fill="#222" font-weight="bold">AI Darwin Awards</text>

  <!-- Tagline -->
  <text x="60" y="222" font-size="36" font-family="'Segoe UI', Arial, sans-serif" fill="#00598F">Honouring Those Who Asked "Can We?"</text>
  <text x="60" y="275" font-size="36" font-family="'Segoe UI', Arial, sans-serif" fill="#00598F">Without Ever Asking "Should We?"</text>

  <rect x="60" y="350" width="420" height="60" rx="30" fill="#00598F"/>
  <text x="270" y="392" text-anchor="middle" font-size="32" font-family="'Segoe UI', Arial, sans-serif" fill="#fff" font-weight="bold">See the Funniest AI Fails</text>
  <!-- Secondary CTA -->
  <text x="60" y="445" font-size="24" font-family="'Segoe UI', Arial, sans-serif" fill="#00598F">Nominate a Catastrophe • Vote for the Winners</text>

  <!-- Quote in bottom right, large quote symbol, light grey, normal font -->
  <text x="60" y="580" font-size="120" font-family="'Segoe UI', Arial, sans-serif" fill="#ddd" font-style="italic" font-weight="bold" opacity="1">“</text>
  <text x="120" y="560" font-size="31" font-family="'Segoe UI', Arial, sans-serif" fill="#888" font-style="italic">Because artificial intelligence isn’t always intelligent.</text>

  <!-- Wide-spaced Footer: Centered at bottom -->
  <!--  <text x="600" y="550" font-size="28" font-family="'Segoe UI', Arial, sans-serif" fill="#000" opacity="0.85" font-weight="500" letter-spacing="0.5em" text-anchor="middle" style="text-transform:uppercase;">AI DARWIN AWARDS</text>-->
</svg>
