<?xml version="1.0" encoding="UTF-8"?>
<svg width="64" height="64" viewBox="0 0 64 64" fill="none" xmlns="http://www.w3.org/2000/svg">
  <!-- Main large sparkle -->
  <g transform="translate(0,3)">
  <polygon points="32,8 36,28 56,32 36,36 32,56 28,36 8,32 28,28" fill="#5999F7" stroke="#2A7CE8" stroke-width="2"/>
  </g>
    <!-- Top right small sparkle -->
  <g transform="translate(-3,-2)">
    <polygon points="50,14 52,20 58,22 52,24 50,30 48,24 42,22 48,20" fill="#A3CCFF" stroke="#2A7CE8" stroke-width="1"/>
  </g>
    <!-- Bottom left small sparkle -->
  <polygon points="14,50 16,54 20,56 16,58 14,62 12,58 8,56 12,54" fill="#A3CCFF" stroke="#2A7CE8" stroke-width="1"/>
    <!-- Top left tiny sparkle -->
    <g transform="translate(2,4)">
  <polygon points="12,12 13,15 16,16 13,17 12,20 11,17 8,16 11,15" fill="#BBE0FF" stroke="#2A7CE8" stroke-width="0.5"/>
    </g>
    <!-- Bottom right tiny sparkle -->
  <polygon points="52,48 53,50 56,51 53,52 52,54 51,52 48,51 51,50" fill="#BBE0FF" stroke="#2A7CE8" stroke-width="0.5"/>
</svg>
